<?xml version="1.0" encoding="utf-8"?>
<!-- Svg Vector Icons : http://www.onlinewebfonts.com/icon -->
<!DOCTYPE svg PUBLIC "-//W3C//DTD SVG 1.1//EN" "http://www.w3.org/Graphics/SVG/1.1/DTD/svg11.dtd">
<svg version="1.1" xmlns="http://www.w3.org/2000/svg" xmlns:xlink="http://www.w3.org/1999/xlink" x="0px" y="0px" viewBox="0 0 1000 1000" enable-background="new 0 0 1000 1000" xml:space="preserve">
<metadata> Svg Vector Icons : http://www.onlinewebfonts.com/icon </metadata>
<g><path d="M629.5,986.1c-10.8,6.3-24.6,5-34.8-3.3c-0.7-0.6-34.4-27.1-158.6-102.6c-68.9-41.9-128.7-88.8-181.5-130.2c-46.1-36.2-89.7-70.4-132.9-96.4c-32.1-19.4-51.1-50.1-52.1-84.3C68.6,529.6,92,490,129.4,468.4c22.3-12.9,46.7-18.2,71.4-16.4L50.3,184.3c-20.5-37.7-40-119,31.3-160.2c27.1-15.1,54-18,79.4-9.3c42.2,14.5,65.9,55.7,71.1,65.4l71.9,117.3c8.5-12,20.1-22.3,34.7-30.8c37.7-21.2,71.3-24.7,101.4-11.3c6.8,3,12.9,6.7,18.4,10.8c10.1-14.6,24.4-26.8,44.9-36.6c27.9-13.5,56.5-14.9,82.8-4.1c12.2,5.1,23,12.3,32.5,20.8c10.5-15.1,26.7-26.5,47.4-32.7C741,91.3,795.4,157,814.4,196.1l65.2,112.5c2.9,4.6,81.6,134.3,84.7,306.8c2.1,117.7,3.4,144.9,3.7,151c0.6,3.4,0.7,6.9,0.2,10.4c-1.4,10-7.6,18.8-16.3,23L629.5,986.1L629.5,986.1z M162.1,524.9c-18,10.4-30.3,29.2-29.9,45.7c0.3,11.1,6.6,20.2,19.1,27.8C198,626.6,243.2,662,291,699.6c53.8,42.2,109.4,85.9,174.9,125.6c82.6,50.2,126.4,79.5,147.9,94.6L905,751.6c-0.9-21.9-1.8-61.9-3.1-138.2c-2.7-154.1-74.2-271.9-75-273l-66.4-114.4c-0.5-0.9-0.9-1.7-1.4-2.6c-1.1-2.3-29.8-60.5-72.7-47.6c-3.5,1.1-6.6,2.4-9.2,3.9c-4.3,2.5-17.4,10-7.7,43c4.2,10.2,6.2,16.9,6.2,16.9c4.9,16.2-3,33-17.9,38.7c-15.1,5.6-32.4-1.9-39.7-17.1c-0.7-1.3-3.9-8.3-7.2-18.6c-12.6-29.2-29.5-50.6-45.4-57.1c-6.3-2.6-16.5-5-33.2,3c-22.3,10.8-34.7,23.3-20.9,53.8l16.8,26.7c9.1,14.4,6.2,33.1-6.7,42.8c-12.7,10-31.3,7.3-42.4-5.7c-1.3-1.5-12.5-14.9-22-34.3l-10.9-17.3c-1.7-2.7-3-5.6-3.9-8.5l0,0c0,0-8.1-24.1-24.8-31.4c-14-6.1-32.4,1.3-45.3,8.6l0,0c-17,9.8-30.2,23.3-17.3,57.8l33.9,55.2c8.8,14.4,5.9,32.8-6.8,42.5c-12.6,9.9-31,7.3-42.1-5.3c-1-1.2-25.4-29.2-40.4-65L178.9,111.6c-0.6-0.9-1-1.8-1.5-2.7c-3.7-7.2-17.1-27.5-33.7-33.1c-8.6-2.9-18-1.5-28.5,4.5l0,0c-38,21.9-13.7,69-10.8,74.4l194.8,346.3c7.7,13.6,5.1,30.5-6.1,40.2c-11.2,9.5-27.9,9.5-39.8-0.5C209.7,504.1,175,517.5,162.1,524.9L162.1,524.9L162.1,524.9z"/></g>
</svg>